<svg fill="#000000" xmlns="http://www.w3.org/2000/svg"  viewBox="0 0 50 50" width="50px" height="50px"><path d="M 25 3 C 12.86158 3 3 12.86158 3 25 C 3 37.13842 12.86158 47 25 47 C 37.13842 47 47 37.13842 47 25 C 47 12.86158 37.13842 3 25 3 z M 25 5 C 36.05754 5 45 13.94246 45 25 C 45 36.05754 36.05754 45 25 45 C 13.94246 45 5 36.05754 5 25 C 5 13.94246 13.94246 5 25 5 z M 23.761719 6 L 23.761719 10.052734 L 25.009766 10.052734 L 25.009766 8.6875 L 26.017578 10.052734 L 27.660156 10.291016 L 26.236328 8.4707031 C 26.549328 8.4067031 27.134766 8.0786719 27.134766 7.3886719 C 27.134766 6.3536719 26.192563 6.0214844 25.601562 6.0214844 L 23.761719 6 z M 25.339844 6.8886719 C 25.679844 6.8886719 25.920641 7.1162344 25.931641 7.3652344 C 25.942641 7.6142344 25.767766 7.8847656 25.384766 7.8847656 L 24.988281 7.8847656 L 24.966797 6.9101562 L 25.339844 6.8886719 z M 31.15625 7.1191406 C 30.08025 7.1411406 29.168172 7.78775 28.951172 8.84375 C 28.734172 9.89475 29.698906 11.138344 30.878906 11.402344 C 32.158906 11.690344 33.352094 11.088609 33.621094 9.7246094 C 33.851094 8.5556094 32.983312 7.4070625 31.695312 7.1640625 C 31.537312 7.1340625 31.379609 7.1201406 31.224609 7.1191406 C 31.202609 7.1191406 31.17825 7.1181406 31.15625 7.1191406 z M 16.119141 8.1894531 L 15.001953 8.7734375 L 15.527344 13.347656 L 16.712891 12.480469 L 16.558594 11.787109 L 17.851562 11.027344 L 18.441406 11.462891 L 19.800781 10.919922 L 16.119141 8.1894531 z M 31.251953 8.2402344 C 31.326953 8.2402344 31.404422 8.2477187 31.482422 8.2617188 C 32.104422 8.3787188 32.498625 8.9106094 32.390625 9.4746094 C 32.281625 10.037609 31.709891 10.420687 31.087891 10.304688 C 30.465891 10.187687 30.158578 9.5913437 30.267578 9.0273438 C 30.362578 8.5343437 30.718953 8.2382344 31.251953 8.2402344 z M 16.162109 9.640625 L 17.103516 10.357422 L 16.425781 10.746094 L 16.162109 9.640625 z M 36.992188 10.226562 L 33.486328 12.632812 L 34.515625 13.433594 L 36.203125 12.132812 L 35.347656 14.234375 L 35.785156 14.646484 L 37.933594 13.779297 L 36.640625 15.513672 L 37.429688 16.617188 L 39.904297 13.107422 L 39.115234 12.175781 L 37.101562 12.978516 L 37.912109 10.962891 L 36.992188 10.226562 z M 25 11 C 17.273936 11 11 17.273936 11 25 C 11 32.726064 17.273936 39 25 39 C 32.726064 39 39 32.726064 39 25 C 39 17.273936 32.726064 11 25 11 z M 11.869141 11.201172 L 10.160156 13.150391 L 13.138672 15.773438 L 13.972656 14.820312 L 12.832031 13.822266 L 13.664062 12.933594 L 12.941406 12.283203 L 12.109375 13.195312 L 11.693359 12.804688 L 12.591797 11.828125 L 11.869141 11.201172 z M 25 12 C 32.185624 12 38 17.814376 38 25 C 38 32.185624 32.185624 38 25 38 L 25 26 L 25 23 L 25 12 z M 24 12.050781 L 24 23 L 20 23 L 20 12.998047 C 21.246026 12.479024 22.592509 12.157966 24 12.050781 z M 17 14.763672 L 17 23 L 12.167969 23 C 12.683443 19.6638 14.457812 16.752478 17 14.763672 z M 28.955078 15.115234 C 28.743078 15.115234 28.572266 15.285141 28.572266 15.494141 C 28.572266 15.703141 28.744078 15.873047 28.955078 15.873047 C 29.166078 15.873047 29.339844 15.703141 29.339844 15.494141 C 29.339844 15.284141 29.167078 15.115234 28.955078 15.115234 z M 29.935547 15.115234 C 29.723547 15.115234 29.550781 15.285141 29.550781 15.494141 C 29.550781 15.703141 29.724547 15.873047 29.935547 15.873047 C 30.147547 15.873047 30.318359 15.703141 30.318359 15.494141 C 30.318359 15.284141 30.148547 15.115234 29.935547 15.115234 z M 30.912109 15.115234 C 30.700109 15.115234 30.529297 15.285141 30.529297 15.494141 C 30.529297 15.703141 30.701109 15.873047 30.912109 15.873047 C 31.124109 15.873047 31.296875 15.703141 31.296875 15.494141 C 31.296875 15.285141 31.125109 15.115234 30.912109 15.115234 z M 31.892578 15.115234 C 31.680578 15.115234 31.507813 15.285141 31.507812 15.494141 C 31.507812 15.703141 31.681578 15.873047 31.892578 15.873047 C 32.104578 15.873047 32.275391 15.703141 32.275391 15.494141 C 32.275391 15.285141 32.104578 15.115234 31.892578 15.115234 z M 32.871094 15.115234 C 32.659094 15.115234 32.486328 15.285141 32.486328 15.494141 C 32.486328 15.703141 32.660094 15.873047 32.871094 15.873047 C 33.082094 15.873047 33.255859 15.703141 33.255859 15.494141 C 33.255859 15.285141 33.083094 15.115234 32.871094 15.115234 z M 28.679688 16.107422 L 28.679688 16.722656 L 33.146484 16.722656 L 33.146484 16.107422 L 28.679688 16.107422 z M 41.853516 16.337891 L 38.130859 17.832031 L 39.181641 20.259766 L 40.166016 19.847656 L 39.619141 18.611328 L 40.080078 18.396484 L 40.605469 19.587891 L 41.503906 19.21875 L 41 18.070312 L 41.4375 17.876953 L 41.962891 19.111328 L 42.882812 18.742188 L 41.853516 16.337891 z M 7.8378906 16.792969 L 7.3144531 17.941406 L 10.947266 19.609375 L 12.109375 17.267578 L 11.212891 16.8125 L 10.511719 18.027344 L 7.8378906 16.792969 z M 28.679688 16.935547 L 28.679688 17.550781 L 33.146484 17.550781 L 33.146484 16.935547 L 28.679688 16.935547 z M 27.005859 17.652344 C 26.991859 17.653344 26.978797 17.654203 26.966797 17.658203 C 26.916797 17.670203 26.866984 17.706813 26.833984 17.757812 C 26.766984 17.859813 26.738641 17.976281 26.931641 18.113281 L 26.933594 18.115234 L 26.9375 18.119141 L 27.361328 18.4375 C 27.506328 18.5405 27.716797 18.716672 27.716797 19.013672 L 27.716797 19.015625 L 27.716797 19.017578 L 27.705078 19.693359 C 27.705078 19.837359 27.652906 20.006187 27.503906 20.117188 C 27.355906 20.228188 27.144406 20.240781 26.941406 20.175781 C 26.797406 20.129781 26.702953 20.079781 26.626953 20.050781 C 26.550953 20.021781 26.485703 20.005859 26.345703 20.005859 C 26.150703 20.005859 26.029453 20.077641 25.939453 20.181641 C 25.849453 20.285641 25.802734 20.430391 25.802734 20.525391 L 25.802734 20.576172 C 25.802734 20.671172 25.848453 20.817875 25.939453 20.921875 C 26.029453 21.025875 26.150703 21.097656 26.345703 21.097656 C 26.484703 21.097656 26.551953 21.081734 26.626953 21.052734 C 26.701953 21.024734 26.796406 20.974734 26.941406 20.927734 C 27.143406 20.862734 27.354906 20.875328 27.503906 20.986328 C 27.652906 21.097328 27.705078 21.26125 27.705078 21.40625 L 27.716797 22.085938 L 27.716797 22.087891 L 27.716797 22.089844 C 27.716797 22.385844 27.513188 22.557156 27.367188 22.660156 L 26.9375 22.984375 L 26.935547 22.986328 L 26.931641 22.990234 C 26.738641 23.127234 26.768937 23.244703 26.835938 23.345703 C 26.869938 23.396703 26.91775 23.431359 26.96875 23.443359 C 27.01875 23.455359 27.071203 23.456391 27.158203 23.400391 L 28.050781 22.802734 C 28.162781 22.721734 28.244141 22.569219 28.244141 22.449219 L 28.234375 21.615234 L 28.234375 21.613281 C 28.234375 21.285281 28.402141 21.0075 28.619141 20.8125 C 28.747141 20.6975 28.894781 20.605781 29.050781 20.550781 C 28.893781 20.494781 28.747141 20.404062 28.619141 20.289062 C 28.402141 20.094062 28.234375 19.815281 28.234375 19.488281 L 28.234375 19.486328 L 28.244141 18.654297 C 28.244141 18.534297 28.170594 18.385687 28.058594 18.304688 L 27.160156 17.703125 C 27.095156 17.660125 27.046859 17.650344 27.005859 17.652344 z M 34.810547 18.222656 C 34.575547 18.434656 34.246234 18.573312 33.865234 18.570312 L 32.40625 18.570312 L 32.40625 18.789062 C 32.40625 18.964063 32.308453 19.102359 32.189453 19.193359 C 32.069453 19.283359 31.919906 19.337891 31.753906 19.337891 L 28.753906 19.337891 L 28.751953 19.486328 C 28.751953 19.636328 28.834797 19.789203 28.966797 19.908203 C 29.099797 20.027203 29.277719 20.095703 29.386719 20.095703 L 31.84375 20.095703 C 31.93875 20.095703 32.033953 20.116688 32.126953 20.179688 C 32.252953 20.285687 32.304688 20.374828 32.304688 20.548828 C 32.304688 20.717828 32.219953 20.852016 32.126953 20.916016 C 32.033953 20.980016 31.93875 21.001953 31.84375 21.001953 L 29.386719 21.001953 C 29.276719 21.001953 29.098797 21.0685 28.966797 21.1875 C 28.834797 21.3065 28.751953 21.457422 28.751953 21.607422 L 28.753906 21.851562 L 33.140625 21.851562 C 33.365625 21.851563 33.569359 21.951656 33.693359 22.097656 C 33.816359 22.243656 33.870141 22.423609 33.869141 22.599609 C 33.868141 22.776609 33.812453 22.956563 33.689453 23.101562 C 33.566453 23.246562 33.364625 23.345703 33.140625 23.345703 L 29.029297 23.345703 C 27.593297 23.345703 26.623047 24.54775 26.623047 25.71875 C 26.623047 27.12075 27.626531 28.048828 28.894531 28.048828 L 33.431641 28.048828 C 33.553641 28.048828 33.675047 28.105453 33.748047 28.189453 C 33.821047 28.274453 33.852516 28.373703 33.853516 28.470703 C 33.854516 28.567703 33.825953 28.668906 33.751953 28.753906 C 33.677953 28.838906 33.552641 28.894531 33.431641 28.894531 L 28.978516 28.894531 C 27.961516 28.894531 27.289062 29.812938 27.289062 30.585938 C 27.289062 31.453938 27.931031 32.257812 29.082031 32.257812 L 32.074219 32.257812 C 32.161219 32.257812 32.243219 32.270359 32.324219 32.318359 C 32.403219 32.366359 32.488281 32.46775 32.488281 32.59375 C 32.488281 32.71875 32.405219 32.820141 32.324219 32.869141 C 32.244219 32.918141 32.160219 32.931641 32.074219 32.931641 L 30.164062 32.931641 C 29.954062 32.931641 29.669078 33.027938 29.455078 33.210938 C 29.240078 33.393937 29.089844 33.646906 29.089844 34.003906 C 29.089844 34.391906 29.239937 34.661563 29.460938 34.851562 C 29.682938 35.041562 29.980953 35.142578 30.251953 35.142578 L 31.029297 35.142578 C 31.170297 35.142578 31.335531 35.237469 31.394531 35.355469 C 31.443531 35.456469 31.442547 35.540281 31.435547 35.613281 C 31.580547 35.601281 31.687672 35.555281 31.763672 35.488281 C 31.881672 35.384281 31.947266 35.220016 31.947266 35.041016 C 31.947266 34.898016 31.885297 34.718844 31.779297 34.589844 C 31.672297 34.461844 31.538469 34.382812 31.355469 34.382812 L 30.060547 34.382812 C 29.982547 34.382812 29.900125 34.365453 29.828125 34.314453 C 29.756125 34.263453 29.694406 34.170453 29.691406 34.064453 C 29.687406 33.957453 29.749219 33.856734 29.824219 33.802734 C 29.899219 33.748734 29.982547 33.732422 30.060547 33.732422 L 32.013672 33.732422 C 32.572672 33.732422 32.903328 33.572516 33.111328 33.353516 C 33.319328 33.133516 33.414062 32.831859 33.414062 32.505859 C 33.414062 31.861859 32.818188 31.1875 32.117188 31.1875 L 28.861328 31.1875 C 28.755328 31.1875 28.643219 31.139453 28.574219 31.064453 C 28.506219 30.989453 28.477563 30.899547 28.476562 30.810547 C 28.476562 30.721547 28.505219 30.629734 28.574219 30.552734 C 28.643219 30.477734 28.755328 30.429688 28.861328 30.429688 L 33.236328 30.429688 C 34.721328 30.429688 35.566406 29.379672 35.566406 28.263672 C 35.566406 27.118672 34.752563 26.148438 33.226562 26.148438 L 28.980469 26.148438 C 28.856469 26.148437 28.73125 26.092813 28.65625 26.007812 C 28.57925 25.922813 28.547875 25.820703 28.546875 25.720703 C 28.545875 25.620703 28.576344 25.516687 28.652344 25.429688 C 28.729344 25.343687 28.854516 25.287109 28.978516 25.287109 L 33.328125 25.287109 C 35.128125 25.287109 37 23.698703 37 21.720703 C 37 20.667703 36.679563 19.953437 36.226562 19.398438 C 35.823563 18.903437 35.307547 18.542656 34.810547 18.222656 z M 10.423828 21.148438 L 6.1523438 22.535156 L 6 23.792969 L 10.052734 25.958984 L 10.029297 24.507812 L 9.4179688 24.226562 L 9.5097656 22.734375 L 10.226562 22.556641 L 10.423828 21.148438 z M 41.832031 21.277344 C 40.403031 21.277344 39.685547 22.436703 39.685547 23.595703 C 39.685547 24.754703 40.534031 25.914062 41.832031 25.914062 C 43.130031 25.914062 44 24.863703 44 23.595703 C 44 22.349703 43.239031 21.277344 41.832031 21.277344 z M 41.859375 22.535156 C 42.490375 22.535156 42.857422 23.118656 42.857422 23.597656 C 42.857422 24.065656 42.475375 24.658203 41.859375 24.658203 C 41.243375 24.658203 40.882812 24.144656 40.882812 23.597656 C 40.882812 23.050656 41.228375 22.535156 41.859375 22.535156 z M 8.546875 22.970703 L 8.4960938 23.802734 L 7.3359375 23.271484 L 8.546875 22.970703 z M 12.050781 26 L 17 26 L 17 35.236328 C 14.206321 33.050775 12.336532 29.752335 12.050781 26 z M 20 26 L 24 26 L 24 37.949219 C 22.592509 37.842034 21.246026 37.520976 20 37.001953 L 20 26 z"/></svg>