<svg fill="#000000" xmlns="http://www.w3.org/2000/svg"  viewBox="0 0 100 100" width="100px" height="100px"><path d="M 49 23.996094 C 37.676114 23.996094 27.533692 26.541554 19.921875 30.90625 C 12.31071 35.270572 7.1914778 41.511935 6.2011719 48.835938 C 6.2011719 48.835938 6.2011719 48.837891 6.2011719 48.837891 C 6.077322 49.647004 6.0073899 50.501038 6 51.333984 C 5.968484 54.731362 6.7923028 57.724131 8.5097656 60.339844 C 12.462789 66.366859 19.01561 70.269256 24.650391 72.732422 C 27.467781 73.964005 30.061933 74.832654 32.005859 75.40625 C 33.949786 75.979846 35.318674 76.275368 35.435547 76.302734 L 38.269531 76.970703 A 1.0001 1.0001 0 0 0 39.417969 76.390625 L 49 54.035156 L 58.580078 76.390625 A 1.0001 1.0001 0 0 0 59.726562 76.970703 L 62.5625 76.304688 L 62.5625 76.306641 C 62.679373 76.279271 64.04826 75.9818 65.992188 75.408203 C 67.936114 74.834607 70.530266 73.965958 73.347656 72.734375 C 78.982437 70.271209 85.535258 66.368812 89.488281 60.341797 C 91.204816 57.724295 92.029213 54.734418 91.998047 51.337891 L 91.998047 51.335938 C 91.993647 50.650242 91.934007 49.944142 91.824219 49.132812 C 91.824219 49.132812 91.824219 49.130859 91.824219 49.130859 C 90.972497 41.739936 85.913003 35.420251 78.294922 31 C 70.676188 26.57937 60.460781 23.996094 49 23.996094 z M 49 25.996094 C 60.159219 25.996094 70.05275 28.530599 77.291016 32.730469 C 84.529282 36.930339 89.074964 42.735116 89.837891 49.361328 A 1.0001 1.0001 0 0 0 89.839844 49.382812 C 89.943882 50.146724 89.994378 50.764522 89.998047 51.351562 A 1.0001 1.0001 0 0 0 89.998047 51.353516 C 90.026527 54.424143 89.315527 56.958168 87.816406 59.244141 C 84.20643 64.748126 77.987594 68.524009 72.546875 70.902344 C 69.826515 72.091511 67.307417 72.935018 65.425781 73.490234 C 63.544146 74.04545 62.375096 74.294288 62.105469 74.357422 A 1.0001 1.0001 0 0 0 62.105469 74.359375 L 60.087891 74.832031 L 49.917969 51.103516 A 1.0001 1.0001 0 0 0 48.080078 51.103516 L 37.910156 74.832031 L 35.892578 74.357422 A 1.0001 1.0001 0 0 0 35.892578 74.355469 C 35.622951 74.292382 34.453901 74.043497 32.572266 73.488281 C 30.69063 72.933065 28.171532 72.089558 25.451172 70.900391 C 20.010453 68.522056 13.791617 64.746172 10.181641 59.242188 C 8.683103 56.959899 7.9715156 54.422185 8 51.351562 C 8.00655 50.613036 8.069366 49.838265 8.1796875 49.123047 A 1.0001 1.0001 0 0 0 8.1835938 49.105469 C 9.0709069 42.538286 13.681786 36.791882 20.917969 32.642578 C 28.154152 28.493274 37.976886 25.996094 49 25.996094 z M 49 27.996094 C 38.681826 27.996094 29.422457 30.27354 22.507812 34.074219 C 15.596865 37.872866 11.000282 43.221882 10.166016 49.367188 C 10.165816 49.368488 10.166215 49.369794 10.166016 49.371094 C 10.063027 50.045807 10.007146 50.714613 10.001953 51.373047 C 9.9803011 53.721736 10.463328 56.0212 11.849609 58.136719 C 15.381725 63.52598 21.581743 67.208468 26.886719 69.574219 C 32.191695 71.93997 36.634766 72.984375 36.634766 72.984375 A 0.50005 0.50005 0 0 0 37.208984 72.697266 L 38.513672 69.697266 A 0.50074446 0.50074446 0 1 0 37.595703 69.296875 L 36.464844 71.896484 C 35.90852 71.760711 32.139325 70.823339 27.292969 68.662109 C 22.077695 66.336361 16.036431 62.702583 12.685547 57.589844 C 11.421829 55.661362 10.981605 53.58817 11.001953 51.380859 C 11.006753 50.77257 11.057663 50.151487 11.154297 49.519531 A 0.50005 0.50005 0 0 0 11.15625 49.509766 C 11.931518 43.770246 16.258629 38.64929 22.990234 34.949219 C 29.72184 31.249148 38.829174 28.996094 49 28.996094 A 0.50005 0.50005 0 1 0 49 27.996094 z M 53.482422 28.144531 A 0.50006107 0.50006107 0 0 0 53.466797 29.144531 C 62.637095 29.753403 70.709293 32.22416 76.617188 35.894531 C 82.525081 39.564902 86.248784 44.407319 86.867188 49.785156 A 0.50005 0.50005 0 0 0 86.867188 49.796875 C 86.942368 50.339716 86.993326 50.871028 86.998047 51.380859 A 0.50005 0.50005 0 1 0 87.998047 51.373047 C 87.992784 50.804157 87.935965 50.231953 87.857422 49.664062 C 87.192706 43.904435 83.22572 38.822955 77.144531 35.044922 C 71.061176 31.265543 62.842905 28.764612 53.533203 28.146484 A 0.50005 0.50005 0 0 0 53.482422 28.144531 z M 48.998047 30.998047 C 40.447971 30.998047 32.588887 32.723461 26.392578 35.589844 C 20.196269 38.456226 15.61808 42.463744 13.816406 47.181641 A 1.0001 1.0001 0 0 0 13.8125 47.193359 C 13.73961 47.391874 13.707389 47.528435 13.683594 47.597656 A 1.0001 1.0001 0 0 0 13.681641 47.599609 C 13.522365 48.066674 13.386619 48.54668 13.283203 49.035156 C 13.242953 49.22382 13.206643 49.416614 13.173828 49.611328 A 1.0001 1.0001 0 0 0 13.171875 49.615234 C 13.073807 50.213625 13 50.839362 13 51.496094 C 13 53.787974 14.17448 55.78851 15.785156 57.439453 C 17.395832 59.090396 19.471818 60.447889 21.527344 61.552734 C 25.638394 63.762424 29.71875 64.957031 29.71875 64.957031 A 1.0001 1.0001 0 0 0 30.771484 64.634766 L 49.009766 42.556641 L 67.736328 64.644531 A 1.0001 1.0001 0 0 0 68.791016 64.953125 C 68.791016 64.953125 72.747223 63.759101 76.734375 61.546875 C 78.727951 60.440762 80.74284 59.08027 82.304688 57.427734 C 83.866535 55.775198 85 53.77729 85 51.496094 C 85 50.82515 84.925662 50.183356 84.824219 49.568359 A 1.0001 1.0001 0 0 0 84.822266 49.556641 C 84.757756 49.192726 84.665443 48.869877 84.591797 48.585938 L 84.591797 48.583984 C 84.526707 48.330358 84.456572 48.046253 84.353516 47.738281 C 84.220201 47.34054 84.067132 46.955078 83.902344 46.580078 L 83.902344 46.583984 C 83.809459 46.370403 83.711837 46.155842 83.601562 45.9375 L 83.601562 45.941406 C 83.422916 45.584116 83.229128 45.226699 83.017578 44.873047 A 1.0001 1.0001 0 0 0 83.013672 44.865234 C 78.037053 36.721478 64.65942 30.998047 48.998047 30.998047 z M 48.998047 32.998047 C 64.160674 32.998047 76.965254 38.803946 81.306641 45.908203 C 81.489346 46.214084 81.658389 46.523808 81.814453 46.835938 A 1.0001 1.0001 0 0 0 81.814453 46.837891 C 81.904183 47.015548 81.987291 47.196449 82.068359 47.382812 A 1.0001 1.0001 0 0 0 82.070312 47.384766 C 82.217524 47.719766 82.348346 48.048788 82.457031 48.373047 C 82.525751 48.578417 82.585509 48.816021 82.654297 49.083984 A 1.0001 1.0001 0 0 0 82.654297 49.085938 C 82.734577 49.395606 82.810193 49.672858 82.851562 49.90625 C 82.940945 50.450839 83 50.978876 83 51.496094 C 83 53.114897 82.195965 54.632223 80.851562 56.054688 C 79.50716 57.477151 77.647049 58.752988 75.765625 59.796875 C 72.486891 61.616043 69.613476 62.568527 68.818359 62.824219 L 49.763672 40.349609 A 1.0001 1.0001 0 0 0 48.228516 40.359375 L 29.667969 62.826172 C 28.862469 62.575611 25.873859 61.619162 22.472656 59.791016 C 20.528182 58.745861 18.604168 57.467026 17.214844 56.042969 C 15.82552 54.618912 15 53.104213 15 51.496094 C 15 50.990825 15.05864 50.47502 15.146484 49.939453 L 15.144531 49.943359 C 15.171611 49.78271 15.204644 49.617915 15.240234 49.451172 A 1.0001 1.0001 0 0 0 15.240234 49.449219 C 15.324814 49.049695 15.439447 48.647029 15.576172 48.246094 L 15.574219 48.248047 C 15.636349 48.067292 15.664559 47.954138 15.685547 47.894531 C 17.213873 43.892428 21.344731 40.129867 27.232422 37.40625 C 33.120113 34.682633 40.718123 32.998047 48.998047 32.998047 z M 46.755859 48.990234 A 0.50005 0.50005 0 0 0 46.296875 49.296875 L 44.556641 53.296875 A 0.50005 0.50005 0 1 0 45.472656 53.697266 L 47.212891 49.697266 A 0.50005 0.50005 0 0 0 46.755859 48.990234 z M 43.710938 55.990234 A 0.50005 0.50005 0 0 0 43.251953 56.296875 L 39.041016 65.976562 A 0.5003544 0.5003544 0 1 0 39.958984 66.375 L 44.167969 56.697266 A 0.50005 0.50005 0 0 0 43.710938 55.990234 z M 85.716797 57.357422 A 0.50005 0.50005 0 0 0 85.3125 57.589844 C 81.961616 62.702583 75.920352 66.336361 70.705078 68.662109 C 65.857056 70.824083 62.087277 71.761278 61.533203 71.896484 L 59.966797 68.296875 A 0.50005 0.50005 0 1 0 59.050781 68.697266 L 60.791016 72.697266 A 0.50005 0.50005 0 0 0 61.363281 72.984375 C 61.363281 72.984375 65.808305 71.93997 71.113281 69.574219 C 76.418257 67.208468 82.616321 63.52598 86.148438 58.136719 A 0.50005 0.50005 0 0 0 85.716797 57.357422 z"/></svg>